<svg fill="none" height="24" viewBox="0 0 24 24" width="24" xmlns="http://www.w3.org/2000/svg"><g fill="#000"><path d="m7 10h-4v11h4z" fill-opacity=".1"/><path d="m5 7c1.10457 0 2-.89543 2-2s-.89543-2-2-2-2 .89543-2 2 .89543 2 2 2z" fill-opacity=".1"/><path clip-rule="evenodd" d="m15.5 8c-3.0376 0-5.5 2.4624-5.5 5.5v7.5h4v-1-1.207-5.293c0-.8284.6716-1.5 1.5-1.5s1.5.6716 1.5 1.5v5.293 1.207 1h4v-7.5c0-3.0376-2.4624-5.5-5.5-5.5z" fill-opacity=".1" fill-rule="evenodd"/></g><path d="m7 10h-4v11h4z" stroke="#000" stroke-linecap="round" stroke-linejoin="round" stroke-width="2"/><path d="m5 7c1.10457 0 2-.89543 2-2s-.89543-2-2-2-2 .89543-2 2 .89543 2 2 2z" stroke="#000" stroke-linecap="round" stroke-linejoin="round" stroke-width="2"/><path d="m10 21h-1c0 .5523.44772 1 1 1zm4 0v1c.5523 0 1-.4477 1-1zm3 0h-1c0 .5523.4477 1 1 1zm4 0v1c.5523 0 1-.4477 1-1zm-10-7.5c0-2.4853 2.0147-4.5 4.5-4.5v-2c-3.5899 0-6.5 2.91015-6.5 6.5zm0 7.5v-7.5h-2v7.5zm3-1h-4v2h4zm-1 0v1h2v-1zm0-1.207v1.207h2v-1.207zm0-5.293v5.293h2v-5.293zm2.5-2.5c-1.3807 0-2.5 1.1193-2.5 2.5h2c0-.2761.2239-.5.5-.5zm2.5 2.5c0-1.3807-1.1193-2.5-2.5-2.5v2c.2761 0 .5.2239.5.5zm0 5.293v-5.293h-2v5.293zm0 1.207v-1.207h-2v1.207zm0 1v-1h-2v1zm3-1h-4v2h4zm-1-6.5v7.5h2v-7.5zm-4.5-4.5c2.4853 0 4.5 2.0147 4.5 4.5h2c0-3.58985-2.9102-6.5-6.5-6.5z" fill="#000"/></svg>